<?xml version="1.0" encoding="UTF-8" standalone="no"?>
<!DOCTYPE svg PUBLIC "-//W3C//DTD SVG 1.1//EN"
 "http://www.w3.org/Graphics/SVG/1.1/DTD/svg11.dtd">
<!-- Generated by graphviz version 2.44.1 (20200629.0846)
 -->
<!-- Title: dependencies Pages: 1 -->
<svg width="1291pt" height="284pt"
 viewBox="0.00 0.00 1291.00 284.00" xmlns="http://www.w3.org/2000/svg" xmlns:xlink="http://www.w3.org/1999/xlink">
<g id="graph0" class="graph" transform="scale(1 1) rotate(0) translate(4 280)">
<title>dependencies</title>
<polygon fill="white" stroke="transparent" points="-4,4 -4,-280 1287,-280 1287,4 -4,4"/>
<text text-anchor="start" x="620.51" y="-42.4" font-family="sans-serif" font-weight="bold" font-size="14.00">Legend</text>
<polygon fill="#ffffb3" stroke="transparent" points="407.5,-10 407.5,-30 427.5,-30 427.5,-10 407.5,-10"/>
<text text-anchor="start" x="431.13" y="-15.4" font-family="sans-serif" font-size="14.00"> &#160;Declarations</text>
<polygon fill="#8dd3c7" stroke="transparent" points="520.5,-10 520.5,-30 540.5,-30 540.5,-10 520.5,-10"/>
<text text-anchor="start" x="544.23" y="-15.4" font-family="sans-serif" font-size="14.00"> &#160;Module</text>
<polygon fill="#80b1d3" stroke="transparent" points="606.5,-10 606.5,-30 626.5,-30 626.5,-10 606.5,-10"/>
<text text-anchor="start" x="630.28" y="-15.4" font-family="sans-serif" font-size="14.00"> &#160;Bootstrap</text>
<polygon fill="#fdb462" stroke="transparent" points="703.5,-10 703.5,-30 723.5,-30 723.5,-10 703.5,-10"/>
<text text-anchor="start" x="727.17" y="-15.4" font-family="sans-serif" font-size="14.00"> &#160;Providers</text>
<polygon fill="#fb8072" stroke="transparent" points="799.5,-10 799.5,-30 819.5,-30 819.5,-10 799.5,-10"/>
<text text-anchor="start" x="823.23" y="-15.4" font-family="sans-serif" font-size="14.00"> &#160;Exports</text>
<g id="clust1" class="cluster">
<title>cluster_AppModule</title>
<polygon fill="none" stroke="black" stroke-dasharray="1,5" points="8,-70 8,-268 1275,-268 1275,-70 8,-70"/>
</g>
<g id="clust2" class="cluster">
<title>cluster_AppModule_declarations</title>
<polygon fill="none" stroke="black" points="318,-78 318,-130 1267,-130 1267,-78 318,-78"/>
</g>
<g id="clust10" class="cluster">
<title>cluster_AppModule_imports</title>
<polygon fill="none" stroke="black" points="166,-78 166,-130 310,-130 310,-78 166,-78"/>
</g>
<g id="clust12" class="cluster">
<title>cluster_AppModule_bootstrap</title>
<polygon fill="none" stroke="black" points="603,-208 603,-260 727,-260 727,-208 603,-208"/>
</g>
<g id="clust13" class="cluster">
<title>cluster_AppModule_providers</title>
<polygon fill="none" stroke="black" points="16,-78 16,-130 158,-130 158,-78 16,-78"/>
</g>
<!-- AppComponent -->
<g id="node1" class="node">
<title>AppComponent</title>
<polygon fill="#ffffb3" stroke="black" points="1258.94,-122 1153.06,-122 1153.06,-86 1258.94,-86 1258.94,-122"/>
<text text-anchor="middle" x="1206" y="-99.8" font-family="Times,serif" font-size="14.00">AppComponent</text>
</g>
<!-- AppModule -->
<g id="node8" class="node">
<title>AppModule</title>
<polygon fill="#8dd3c7" stroke="black" points="706.66,-187 703.66,-191 682.66,-191 679.66,-187 623.34,-187 623.34,-151 706.66,-151 706.66,-187"/>
<text text-anchor="middle" x="665" y="-164.8" font-family="Times,serif" font-size="14.00">AppModule</text>
</g>
<!-- AppComponent&#45;&gt;AppModule -->
<g id="edge1" class="edge">
<title>AppComponent&#45;&gt;AppModule</title>
<path fill="none" stroke="black" d="M1206,-122.01C1206,-144.49 1206,-180 1206,-180 1206,-180 717,-180 717,-180"/>
<polygon fill="black" stroke="black" points="717,-176.5 707,-180 717,-183.5 717,-176.5"/>
</g>
<!-- CoursComponent -->
<g id="node2" class="node">
<title>CoursComponent</title>
<polygon fill="#ffffb3" stroke="black" points="1135.27,-122 1020.73,-122 1020.73,-86 1135.27,-86 1135.27,-122"/>
<text text-anchor="middle" x="1078" y="-99.8" font-family="Times,serif" font-size="14.00">CoursComponent</text>
</g>
<!-- CoursComponent&#45;&gt;AppModule -->
<g id="edge2" class="edge">
<title>CoursComponent&#45;&gt;AppModule</title>
<path fill="none" stroke="black" d="M1078,-122.13C1078,-142.57 1078,-173 1078,-173 1078,-173 716.87,-173 716.87,-173"/>
<polygon fill="black" stroke="black" points="716.87,-169.5 706.87,-173 716.87,-176.5 716.87,-169.5"/>
</g>
<!-- CoursesComponent -->
<g id="node3" class="node">
<title>CoursesComponent</title>
<polygon fill="#ffffb3" stroke="black" points="1002.43,-122 875.57,-122 875.57,-86 1002.43,-86 1002.43,-122"/>
<text text-anchor="middle" x="939" y="-99.8" font-family="Times,serif" font-size="14.00">CoursesComponent</text>
</g>
<!-- CoursesComponent&#45;&gt;AppModule -->
<g id="edge3" class="edge">
<title>CoursesComponent&#45;&gt;AppModule</title>
<path fill="none" stroke="black" d="M939,-122.27C939,-140.56 939,-166 939,-166 939,-166 716.91,-166 716.91,-166"/>
<polygon fill="black" stroke="black" points="716.91,-162.5 706.91,-166 716.91,-169.5 716.91,-162.5"/>
</g>
<!-- FooterComponent -->
<g id="node4" class="node">
<title>FooterComponent</title>
<polygon fill="#ffffb3" stroke="black" points="857.88,-122 740.12,-122 740.12,-86 857.88,-86 857.88,-122"/>
<text text-anchor="middle" x="799" y="-99.8" font-family="Times,serif" font-size="14.00">FooterComponent</text>
</g>
<!-- FooterComponent&#45;&gt;AppModule -->
<g id="edge4" class="edge">
<title>FooterComponent&#45;&gt;AppModule</title>
<path fill="none" stroke="black" d="M799,-122.01C799,-138.05 799,-159 799,-159 799,-159 716.66,-159 716.66,-159"/>
<polygon fill="black" stroke="black" points="716.66,-155.5 706.66,-159 716.66,-162.5 716.66,-155.5"/>
</g>
<!-- MenuComponent -->
<g id="node5" class="node">
<title>MenuComponent</title>
<polygon fill="#ffffb3" stroke="black" points="721.99,-122 608.01,-122 608.01,-86 721.99,-86 721.99,-122"/>
<text text-anchor="middle" x="665" y="-99.8" font-family="Times,serif" font-size="14.00">MenuComponent</text>
</g>
<!-- MenuComponent&#45;&gt;AppModule -->
<g id="edge5" class="edge">
<title>MenuComponent&#45;&gt;AppModule</title>
<path fill="none" stroke="black" d="M665,-122.11C665,-122.11 665,-140.99 665,-140.99"/>
<polygon fill="black" stroke="black" points="661.5,-140.99 665,-150.99 668.5,-140.99 661.5,-140.99"/>
</g>
<!-- ProfileComponent -->
<g id="node6" class="node">
<title>ProfileComponent</title>
<polygon fill="#ffffb3" stroke="black" points="589.93,-122 470.07,-122 470.07,-86 589.93,-86 589.93,-122"/>
<text text-anchor="middle" x="530" y="-99.8" font-family="Times,serif" font-size="14.00">ProfileComponent</text>
</g>
<!-- ProfileComponent&#45;&gt;AppModule -->
<g id="edge6" class="edge">
<title>ProfileComponent&#45;&gt;AppModule</title>
<path fill="none" stroke="black" d="M530,-122.01C530,-138.05 530,-159 530,-159 530,-159 613.03,-159 613.03,-159"/>
<polygon fill="black" stroke="black" points="613.03,-162.5 623.03,-159 613.03,-155.5 613.03,-162.5"/>
</g>
<!-- ProjectsComponent -->
<g id="node7" class="node">
<title>ProjectsComponent</title>
<polygon fill="#ffffb3" stroke="black" points="452.43,-122 325.57,-122 325.57,-86 452.43,-86 452.43,-122"/>
<text text-anchor="middle" x="389" y="-99.8" font-family="Times,serif" font-size="14.00">ProjectsComponent</text>
</g>
<!-- ProjectsComponent&#45;&gt;AppModule -->
<g id="edge7" class="edge">
<title>ProjectsComponent&#45;&gt;AppModule</title>
<path fill="none" stroke="black" d="M389,-122.27C389,-140.56 389,-166 389,-166 389,-166 613.08,-166 613.08,-166"/>
<polygon fill="black" stroke="black" points="613.08,-169.5 623.08,-166 613.08,-162.5 613.08,-169.5"/>
</g>
<!-- AppComponent  -->
<g id="node10" class="node">
<title>AppComponent </title>
<polygon fill="#80b1d3" stroke="black" points="719.44,-252 610.56,-252 610.56,-216 719.44,-216 719.44,-252"/>
<text text-anchor="middle" x="665" y="-229.8" font-family="Times,serif" font-size="14.00">AppComponent </text>
</g>
<!-- AppModule&#45;&gt;AppComponent  -->
<g id="edge9" class="edge">
<title>AppModule&#45;&gt;AppComponent </title>
<path fill="none" stroke="black" stroke-dasharray="1,5" d="M665,-187.11C665,-187.11 665,-205.99 665,-205.99"/>
<polygon fill="black" stroke="black" points="661.5,-205.99 665,-215.99 668.5,-205.99 661.5,-205.99"/>
</g>
<!-- AppRoutingModule -->
<g id="node9" class="node">
<title>AppRoutingModule</title>
<polygon fill="#8dd3c7" stroke="black" points="302.27,-122 299.27,-126 278.27,-126 275.27,-122 173.73,-122 173.73,-86 302.27,-86 302.27,-122"/>
<text text-anchor="middle" x="238" y="-99.8" font-family="Times,serif" font-size="14.00">AppRoutingModule</text>
</g>
<!-- AppRoutingModule&#45;&gt;AppModule -->
<g id="edge8" class="edge">
<title>AppRoutingModule&#45;&gt;AppModule</title>
<path fill="none" stroke="black" d="M238,-122.13C238,-142.57 238,-173 238,-173 238,-173 613.28,-173 613.28,-173"/>
<polygon fill="black" stroke="black" points="613.28,-176.5 623.28,-173 613.28,-169.5 613.28,-176.5"/>
</g>
<!-- CoursService -->
<g id="node11" class="node">
<title>CoursService</title>
<ellipse fill="#fdb462" stroke="black" cx="87" cy="-104" rx="63.12" ry="18"/>
<text text-anchor="middle" x="87" y="-99.8" font-family="Times,serif" font-size="14.00">CoursService</text>
</g>
<!-- CoursService&#45;&gt;AppModule -->
<g id="edge10" class="edge">
<title>CoursService&#45;&gt;AppModule</title>
<path fill="none" stroke="black" d="M87,-122.01C87,-144.49 87,-180 87,-180 87,-180 612.97,-180 612.97,-180"/>
<polygon fill="black" stroke="black" points="612.97,-183.5 622.97,-180 612.97,-176.5 612.97,-183.5"/>
</g>
</g>
</svg>
